# xmcd
#
# Track frame offsets: 
#        150
#        20627
#        34032
#        51707
#        71056
#        91703
#        114107
#        131240
#        148940
#        163499
#        181405
#
# Disc length: 2596 seconds
#
# Revision: 0
# Processed by: cddbd v1.5.2PL0 Copyright (c) Steve Scherf et al.
# Submitted via: ExactAudioCopyFreeDBPlugin 1.0
#
DISCID=a50a220b
DTITLE=Steph Macpherson - Stones
DYEAR=2015
DGENRE=Country
TTITLE0=Lie Beside You
TTITLE1=Everthing You Don't Do
TTITLE2=Spark
TTITLE3=Holding In
TTITLE4=Wood and Nails
TTITLE5=Stone
TTITLE6=You Got Mean
TTITLE7=Cerulean Blue
TTITLE8=Home
TTITLE9=Mexico
TTITLE10=In Your Hands
EXTD=
EXTT0=
EXTT1=
EXTT2=
EXTT3=
EXTT4=
EXTT5=
EXTT6=
EXTT7=
EXTT8=
EXTT9=
EXTT10=
PLAYORDER=
